<svg xmlns="http://www.w3.org/2000/svg" width="160" height="160" viewBox="0 0 160 160" role="img" aria-labelledby="title desc">
  <title id="title">RCH Math Academy logo</title>
  <desc id="desc">A dark gray academic logo with an R, coordinate axes, and a rising graph line.</desc>
  <rect x="8" y="8" width="144" height="144" rx="26" fill="#0f172a"/>
  <rect x="22" y="22" width="116" height="116" rx="18" fill="#f8fafc"/>
  <path d="M46 112V48h36c14 0 24 9 24 22 0 9-5 17-13 20l18 22H94L78 92H62v20H46Zm16-34h18c6 0 10-3 10-8s-4-8-10-8H62v16Z" fill="#0f172a"/>
  <path d="M42 124h76" stroke="#334155" stroke-width="6" stroke-linecap="round"/>
  <path d="M42 124V98" stroke="#334155" stroke-width="6" stroke-linecap="round"/>
  <path d="M48 118l16-14 16 6 28-34" fill="none" stroke="#475569" stroke-width="7" stroke-linecap="round" stroke-linejoin="round"/>
  <circle cx="108" cy="76" r="6" fill="#111827"/>
</svg>
