<svg xmlns="http://www.w3.org/2000/svg" width="320" height="320" viewBox="0 0 320 320" role="img" aria-labelledby="title desc">
  <title id="title">Math tutor avatar</title>
  <desc id="desc">A friendly gray-theme tutor avatar with glasses, a pencil, and small math symbols.</desc>
  <rect width="320" height="320" rx="42" fill="#f8fafc"/>
  <circle cx="160" cy="144" r="86" fill="#e2e8f0"/>
  <circle cx="160" cy="132" r="58" fill="#f1f5f9"/>
  <path d="M107 250c10-42 36-64 53-64s43 22 53 64H107Z" fill="#334155"/>
  <path d="M119 135c8-21 22-38 41-38s33 17 41 38c-12-8-25-12-41-12s-29 4-41 12Z" fill="#0f172a"/>
  <circle cx="138" cy="144" r="17" fill="#ffffff" stroke="#0f172a" stroke-width="6"/>
  <circle cx="182" cy="144" r="17" fill="#ffffff" stroke="#0f172a" stroke-width="6"/>
  <path d="M155 144h10" stroke="#0f172a" stroke-width="5" stroke-linecap="round"/>
  <circle cx="138" cy="146" r="4" fill="#0f172a"/>
  <circle cx="182" cy="146" r="4" fill="#0f172a"/>
  <path d="M145 171c10 8 20 8 30 0" fill="none" stroke="#0f172a" stroke-width="5" stroke-linecap="round"/>
  <path d="M76 238l38-38 18 18-38 38-24 6 6-24Z" fill="#64748b"/>
  <path d="M114 200l18 18" stroke="#f8fafc" stroke-width="5" stroke-linecap="round"/>
  <path d="M229 72h34M246 55v34" stroke="#334155" stroke-width="8" stroke-linecap="round"/>
  <path d="M55 83h40M60 108h30" stroke="#475569" stroke-width="7" stroke-linecap="round"/>
  <path d="M224 220c14-20 29-20 43 0" fill="none" stroke="#475569" stroke-width="8" stroke-linecap="round"/>
  <circle cx="255" cy="236" r="6" fill="#475569"/>
</svg>
